<svg xmlns="http://www.w3.org/2000/svg" xmlns:xlink="http://www.w3.org/1999/xlink" width="403pt" height="403pt" viewBox="0 0 403 403"><g id="surface1"><path style=" stroke:none;fill-rule:evenodd;fill:rgb(100%,100%,100%);fill-opacity:1;" d="M 0.976563 0.0429688 L 402.964844 0.0429688 L 402.964844 402.03125 L 0.976563 402.03125 L 0.976563 0.0429688 "></path><path style=" stroke:none;fill-rule:evenodd;fill:rgb(0%,44.699097%,73.699951%);fill-opacity:1;" d="M 223.324219 208.867188 C 219.261719 219.558594 212.839844 229.488281 204.691406 237.402344 C 195.179688 246.628906 182.554688 253.707031 169.007813 253.707031 C 162.144531 253.707031 155.550781 251.847656 149.851563 247.980469 C 149.136719 247.496094 148.445313 246.984375 147.777344 246.449219 C 149.25 267.542969 138.261719 287.273438 115.015625 290.730469 C 106.390625 292.015625 96.925781 290.621094 88.277344 289.804688 C 82.136719 289.21875 67.835938 287.683594 62.882813 291.886719 C 60.976563 293.503906 60.464844 296.179688 60.324219 298.550781 L 59.769531 307.992188 C 59.578125 311.226563 57.078125 313.8125 53.851563 314.117188 C 50.644531 314.417969 47.6875 312.324219 46.902344 309.199219 L 44.601563 300.019531 C 42.386719 291.191406 42.253906 281.953125 46.316406 273.613281 C 48.300781 269.539063 51.109375 266.070313 54.472656 263.144531 C 51.085938 260.597656 47.980469 257.691406 45.195313 254.476563 C 19.640625 224.988281 23.644531 174.703125 39.234375 141.445313 C 45.75 127.546875 55.21875 114.605469 66.921875 104.628906 C 76.382813 96.566406 88.523438 89.523438 101.074219 88.226563 L 103.601563 87.964844 C 105.964844 87.71875 108.1875 88.71875 109.578125 90.652344 C 110.96875 92.582031 111.207031 95.007813 110.222656 97.175781 L 109.167969 99.480469 C 104.691406 109.320313 103.683594 118.914063 106.675781 129.351563 C 109.226563 138.265625 114.257813 146.558594 119.359375 154.230469 C 124.140625 161.417969 129.304688 168.382813 133.753906 175.78125 C 134.398438 160.585938 135.042969 145.386719 135.6875 130.1875 L 135.730469 129.207031 C 135.847656 126.503906 137.546875 124.214844 140.097656 123.316406 L 141.023438 122.992188 C 150.527344 119.652344 160.035156 116.316406 169.539063 112.980469 L 171.558594 112.269531 C 173.628906 111.542969 175.847656 111.878906 177.613281 113.183594 C 179.375 114.488281 180.34375 116.511719 180.253906 118.703125 L 179.140625 146.101563 C 183.980469 143.742188 189.234375 142.308594 194.675781 142.308594 C 201.875 142.308594 208.746094 144.3125 214.484375 148.730469 C 218.757813 152.007813 221.914063 156.148438 224.128906 160.828125 C 228.203125 150.605469 234.445313 141.125 242.289063 133.507813 C 251.796875 124.28125 264.425781 117.203125 277.96875 117.203125 C 284.839844 117.203125 291.433594 119.058594 297.128906 122.929688 C 300.839844 125.449219 303.921875 128.644531 306.378906 132.300781 C 310.105469 122.910156 315.433594 114.019531 322.3125 106.675781 C 329.773438 98.714844 340.101563 91.671875 351.351563 91.292969 C 355.246094 91.164063 359.09375 91.964844 362.546875 93.796875 C 374.898438 100.34375 376.679688 112.539063 377.148438 125.257813 L 377.152344 125.296875 L 377.152344 125.335938 C 377.175781 127.1875 377.121094 129.039063 377.007813 130.890625 L 375.726563 178.503906 C 375.660156 180.972656 374.277344 183.121094 372.054688 184.203125 L 341.34375 199.167969 L 341.351563 198.0625 C 336.914063 200.667969 331.933594 202.371094 326.746094 201.980469 C 318.066406 201.324219 311.496094 195.65625 307.195313 188.5625 C 303.148438 197.589844 297.402344 205.945313 290.335938 212.804688 C 280.828125 222.035156 268.199219 229.113281 254.65625 229.113281 C 247.789063 229.113281 241.195313 227.253906 235.496094 223.382813 C 230.09375 219.71875 226.066406 214.644531 223.324219 208.867188 Z M 74.171875 232.441406 C 76.925781 232.441406 80.351563 228.945313 81.945313 226.953125 C 85.773438 222.171875 88.328125 215.890625 89.511719 209.910156 C 90.410156 205.363281 90.703125 200.0625 89.429688 195.566406 C 89.011719 194.089844 87.925781 191.28125 86.390625 190.617188 C 86.152344 190.515625 85.902344 190.476563 85.640625 190.476563 C 82.882813 190.476563 79.457031 193.976563 77.863281 195.964844 C 74.039063 200.75 71.480469 207.027344 70.296875 213.011719 C 69.398438 217.558594 69.105469 222.855469 70.382813 227.351563 C 70.796875 228.828125 71.882813 231.636719 73.417969 232.300781 C 73.660156 232.40625 73.910156 232.441406 74.171875 232.441406 Z M 342.730469 141.75 C 341.746094 143.820313 341.011719 146.058594 340.53125 148.207031 C 340.460938 148.523438 340.394531 148.84375 340.332031 149.167969 C 340.683594 148.304688 341.011719 147.433594 341.316406 146.566406 C 341.65625 145.585938 342.277344 143.652344 342.730469 141.75 Z M 185.125 189.398438 C 183.820313 189.765625 181.984375 191.339844 181.234375 192.101563 C 178.785156 194.578125 176.902344 197.921875 175.890625 201.25 C 175.296875 203.207031 174.859375 205.65625 175.234375 207.6875 C 175.265625 207.871094 175.34375 208.183594 175.433594 208.457031 C 176.738281 208.089844 178.574219 206.515625 179.324219 205.753906 C 181.773438 203.273438 183.65625 199.933594 184.664063 196.605469 C 185.261719 194.648438 185.699219 192.199219 185.324219 190.164063 C 185.289063 189.984375 185.21875 189.671875 185.125 189.398438 Z M 271.523438 163.425781 C 270.375 163.9375 268.789063 165.386719 268.222656 165.984375 C 265.796875 168.550781 263.964844 172.003906 262.980469 175.386719 C 262.371094 177.480469 261.9375 180.097656 262.351563 182.265625 C 262.378906 182.414063 262.433594 182.652344 262.507813 182.890625 C 263.652344 182.378906 265.238281 180.929688 265.804688 180.332031 C 268.230469 177.761719 270.0625 174.3125 271.046875 170.929688 C 271.65625 168.835938 272.089844 166.214844 271.675781 164.050781 C 271.648438 163.898438 271.59375 163.664063 271.523438 163.425781 "></path><path style=" stroke:none;fill-rule:evenodd;fill:rgb(100%,100%,100%);fill-opacity:1;" d="M 222.707031 169.808594 C 226.238281 156.984375 233.328125 144.839844 242.855469 135.59375 C 251.804688 126.910156 263.742188 120.109375 276.511719 120.109375 C 282.796875 120.109375 288.820313 121.789063 294.039063 125.335938 C 299.199219 128.835938 302.984375 133.746094 305.503906 139.3125 C 309.066406 128.082031 314.9375 117.238281 322.972656 108.664063 C 329.875 101.296875 339.558594 94.546875 349.988281 94.195313 C 353.390625 94.082031 356.714844 94.765625 359.730469 96.363281 C 370.777344 102.21875 372.339844 113.230469 372.789063 125.367188 C 372.8125 127.164063 372.757813 128.964844 372.644531 130.761719 L 371.367188 178.425781 C 371.328125 179.816406 370.574219 180.984375 369.324219 181.59375 L 342.828125 194.503906 L 342.84375 192.523438 C 337.683594 196.570313 331.65625 199.550781 325.507813 199.082031 C 315.652344 198.335938 308.902344 190.074219 305.441406 181.476563 C 301.582031 192.441406 295.140625 202.679688 286.855469 210.71875 C 277.90625 219.40625 265.960938 226.207031 253.195313 226.207031 C 246.910156 226.207031 240.886719 224.523438 235.667969 220.980469 C 228.636719 216.207031 224.15625 208.820313 221.953125 200.71875 C 221.867188 200.40625 221.785156 200.089844 221.707031 199.773438 C 218.308594 213.085938 211.0625 225.75 201.210938 235.316406 C 192.257813 244 180.316406 250.800781 167.550781 250.800781 C 161.265625 250.800781 155.242188 249.117188 150.023438 245.574219 C 146.808594 243.394531 144.152344 240.699219 142.003906 237.65625 C 147.503906 260.058594 138.347656 284.109375 113.128906 287.859375 C 105.027344 289.0625 95.269531 287.6875 87.09375 286.910156 C 79.921875 286.230469 65.449219 284.660156 59.542969 289.671875 C 56.972656 291.851563 56.15625 295.136719 55.964844 298.378906 L 55.410156 307.820313 C 55.300781 309.625 53.921875 311.054688 52.125 311.222656 C 50.324219 311.390625 48.699219 310.242188 48.261719 308.492188 L 45.960938 299.316406 C 42.011719 283.578125 46.183594 271.289063 57.890625 263.015625 C 53.457031 260.128906 49.457031 256.640625 45.933594 252.574219 C 21.15625 223.984375 25.34375 174.8125 40.40625 142.679688 C 46.742188 129.164063 55.964844 116.539063 67.347656 106.839844 C 76.332031 99.183594 87.972656 92.351563 99.917969 91.113281 L 102.4375 90.855469 C 103.769531 90.71875 104.980469 91.261719 105.761719 92.347656 C 106.539063 93.433594 106.671875 94.753906 106.117188 95.96875 L 105.066406 98.277344 C 100.296875 108.761719 99.246094 119.054688 102.421875 130.152344 C 105.0625 139.363281 110.210938 147.910156 115.480469 155.839844 C 121.761719 165.285156 129.648438 175.539063 134.746094 186.472656 C 135.542969 167.753906 136.339844 149.03125 137.132813 130.3125 L 137.175781 129.328125 C 137.238281 127.816406 138.167969 126.5625 139.601563 126.058594 L 140.53125 125.734375 C 150.03125 122.394531 159.539063 119.058594 169.042969 115.722656 L 171.0625 115.011719 C 172.230469 114.601563 173.425781 114.777344 174.425781 115.519531 C 175.421875 116.253906 175.945313 117.34375 175.894531 118.585938 L 174.570313 151.191406 C 180.175781 147.585938 186.550781 145.210938 193.214844 145.210938 C 199.773438 145.210938 206.023438 147.007813 211.257813 151.03125 C 217.4375 155.78125 220.988281 162.464844 222.707031 169.808594 Z M 72.710938 235.347656 C 76.574219 235.347656 80.519531 231.5625 82.753906 228.769531 C 86.875 223.617188 89.628906 216.90625 90.902344 210.472656 C 91.890625 205.480469 92.167969 199.722656 90.765625 194.773438 C 90.066406 192.308594 88.605469 189.039063 86.085938 187.949219 C 85.476563 187.6875 84.84375 187.570313 84.179688 187.570313 C 80.320313 187.570313 76.371094 191.359375 74.136719 194.148438 C 70.019531 199.296875 67.265625 206.011719 65.992188 212.445313 C 65.003906 217.441406 64.726563 223.195313 66.128906 228.144531 C 66.824219 230.609375 68.285156 233.878906 70.808594 234.96875 C 71.414063 235.230469 72.050781 235.347656 72.710938 235.347656 Z M 344.613281 136.789063 C 344.046875 132.214844 342.472656 134.339844 340.539063 137.1875 C 338.476563 140.222656 337.039063 144.003906 336.238281 147.570313 C 335.632813 150.289063 335.28125 153.355469 335.625 156.132813 C 336.890625 163.882813 345.816406 142.425781 344.613281 136.789063 Z M 173.476563 211.4375 C 175.757813 211.4375 178.421875 209.324219 179.929688 207.796875 C 182.710938 204.980469 184.839844 201.222656 185.988281 197.449219 C 186.722656 195.03125 187.1875 192.152344 186.722656 189.636719 C 186.550781 188.695313 186.105469 187.230469 185.230469 186.675781 C 184.910156 186.472656 184.539063 186.417969 184.167969 186.417969 C 181.886719 186.417969 179.21875 188.53125 177.710938 190.058594 C 174.929688 192.871094 172.800781 196.628906 171.652344 200.40625 C 170.917969 202.820313 170.453125 205.703125 170.917969 208.21875 C 171.09375 209.160156 171.535156 210.625 172.410156 211.179688 C 172.730469 211.378906 173.101563 211.4375 173.476563 211.4375 Z M 260.355469 185.976563 C 262.492188 185.976563 265.085938 183.777344 266.457031 182.324219 C 269.199219 179.421875 271.265625 175.5625 272.378906 171.738281 C 273.117188 169.191406 273.578125 166.140625 273.070313 163.503906 C 272.902344 162.605469 272.433594 161.03125 271.570313 160.523438 C 271.324219 160.382813 271.039063 160.339844 270.753906 160.339844 C 268.617188 160.339844 266.023438 162.539063 264.652344 163.988281 C 261.910156 166.894531 259.84375 170.753906 258.734375 174.574219 C 257.992188 177.125 257.535156 180.171875 258.039063 182.808594 C 258.210938 183.707031 258.675781 185.285156 259.539063 185.789063 C 259.789063 185.933594 260.070313 185.976563 260.355469 185.976563 "></path><path style=" stroke:none;fill-rule:evenodd;fill:rgb(92.89856%,10.998535%,14.099121%);fill-opacity:1;" d="M 68.449219 262.929688 C 27.714844 245.296875 25.980469 185.433594 45.007813 144.839844 C 58.160156 116.78125 81.742188 98.105469 100.441406 96.171875 C 79.808594 141.492188 130.429688 169.332031 134.625 203.230469 C 136.90625 221.671875 130.625 241.746094 109.726563 257.011719 C 128.992188 254.027344 134.679688 246.175781 136.558594 236.960938 C 142.0625 256.058594 136.019531 279.3125 112.382813 282.828125 C 92.34375 285.808594 52.542969 270.058594 50.890625 298.078125 C 46.996094 282.554688 51.5625 270.335938 68.449219 262.929688 Z M 325.890625 194.011719 C 332.539063 194.519531 340.703125 189.117188 348.023438 180.304688 L 347.976563 186.339844 L 366.308594 177.410156 L 367.566406 130.527344 C 367.679688 128.738281 367.726563 127.003906 367.703125 125.328125 L 367.71875 124.882813 L 367.699219 124.921875 C 367.394531 109.210938 361.097656 98.910156 350.15625 99.277344 C 334.960938 99.789063 316.382813 117.972656 309.269531 144.550781 C 302.160156 171.128906 312.472656 192.996094 325.890625 194.011719 Z M 336.109375 164.363281 C 340.992188 164.363281 346.746094 156.347656 348.960938 146.460938 C 351.175781 136.574219 349.011719 128.558594 344.128906 128.558594 C 339.246094 128.558594 333.492188 136.574219 331.277344 146.460938 C 329.0625 156.347656 331.226563 164.363281 336.109375 164.363281 Z M 167.550781 245.714844 C 188.402344 245.714844 210.535156 224.238281 216.96875 197.753906 C 223.40625 171.265625 214.070313 150.296875 193.214844 150.296875 C 184.84375 150.296875 176.117188 154.964844 169.027344 162.34375 L 170.726563 120.519531 C 161.222656 123.855469 151.71875 127.191406 142.214844 130.527344 C 141.269531 152.730469 140.324219 174.933594 139.382813 197.132813 C 139.328125 203.074219 139.304688 208.941406 139.710938 213.691406 C 140.351563 232.34375 151.097656 245.714844 167.550781 245.714844 Z M 173.476563 216.523438 C 180.117188 216.523438 187.902344 208.644531 190.855469 198.925781 C 193.804688 189.210938 190.8125 181.328125 184.167969 181.328125 C 177.523438 181.328125 169.738281 189.210938 166.789063 198.925781 C 163.835938 208.644531 166.832031 216.523438 173.476563 216.523438 Z M 253.195313 221.121094 C 274.050781 221.121094 296.183594 199.644531 302.617188 173.15625 C 309.054688 146.671875 297.363281 125.191406 276.511719 125.191406 C 255.65625 125.191406 233.527344 146.671875 227.089844 173.15625 C 220.652344 199.644531 232.34375 221.121094 253.195313 221.121094 Z M 260.355469 191.058594 C 266.816406 191.058594 274.386719 183.042969 277.261719 173.15625 C 280.132813 163.269531 277.21875 155.253906 270.753906 155.253906 C 264.292969 155.253906 256.722656 163.269531 253.851563 173.15625 C 250.980469 183.042969 253.890625 191.058594 260.355469 191.058594 Z M 72.710938 240.429688 C 82.34375 240.429688 92.722656 227.457031 95.890625 211.460938 C 99.054688 195.460938 93.8125 182.488281 84.179688 182.488281 C 74.550781 182.488281 64.171875 195.460938 61.003906 211.460938 C 57.835938 227.457031 63.082031 240.429688 72.710938 240.429688 "></path></g></svg>