<svg xmlns="http://www.w3.org/2000/svg" id="svg50" x="0" y="0" viewBox="0 0 2000 653.5" style="enable-background:new 0 0 2000 653.5" xml:space="preserve"><style>.st14,.st16{fill-rule:evenodd;clip-rule:evenodd}.st16{fill:#fff}</style><g id="Layer1000" transform="matrix(.88478 0 0 .88478 -22.443 86.656)"><g id="Layer1001"><path id="path2" d="m1952-75 333.8 248.7L1936 640.6l-333.8-248.7L1952-75z" style="fill-rule:evenodd;clip-rule:evenodd;fill:#8ebd49"></path><path id="path4" d="m1734.5-95.5 364.4 201.4-283.5 509.9L1451 414.3l283.5-509.8z" style="fill-rule:evenodd;clip-rule:evenodd;fill:#249263"></path><path id="path6" d="m1469.3-46.8 416.2-6.5 7.6 583.4-416.2 6.5-7.6-583.4z" style="fill-rule:evenodd;clip-rule:evenodd;fill:#1f99be"></path><path id="path8" d="m1363.1-79.8 405 83.7-118.8 567.3-405-83.7 118.8-567.3z" style="fill-rule:evenodd;clip-rule:evenodd;fill:#3777b4"></path><path id="path10" d="m1098.5 17.4 398.3-97.8 135.6 558.6-398.3 97.8-135.6-558.6z" style="fill-rule:evenodd;clip-rule:evenodd;fill:#5b62a8"></path><path id="path12" d="M25.4 41.4 426.8-62.5l156 546.9-401.5 103.9L25.4 41.4z" style="fill-rule:evenodd;clip-rule:evenodd;fill:#f9ee30"></path><path id="path14" d="M243.8-65.8 652.2 6.1l-84.8 562.4L159 496.6l84.8-562.4z" style="fill-rule:evenodd;clip-rule:evenodd;fill:#fed32e"></path><path id="path16" d="m271.4-4.9 404.1-93L816.7 453l-404.1 93L271.4-4.9z" style="fill-rule:evenodd;clip-rule:evenodd;fill:#f89e3d"></path><path id="path18" d="M529.7-74.1 929.3 36.8 790.7 588.3 391.2 477.5 529.7-74.1z" style="fill-rule:evenodd;clip-rule:evenodd;fill:#f2733e"></path><path id="path20" d="m647.2-36 408.6-35 47.5 572.8-408.6 35L647.2-36z" style="fill-rule:evenodd;clip-rule:evenodd;fill:#ee3e3e"></path><path id="path22" d="m958.9-81.3 351.4 211.5-297.7 491.7-351.4-211.5L958.9-81.3z" style="fill-rule:evenodd;clip-rule:evenodd;fill:#d12d8c"></path><path id="path24" d="m1035.7-59.4 403.6 73L1335.5 579l-403.6-73 103.8-565.4z" style="fill-rule:evenodd;clip-rule:evenodd;fill:#7f519a"></path></g><path id="path27" d="M313.5 116.8h1602.1v329.5H313.5V116.8z" style="fill-rule:evenodd;clip-rule:evenodd;fill-opacity:0"></path><g id="Layer1002" transform="matrix(1.00427 0 0 1.00427 -.727 -1.072)" style="opacity:.339"><path id="path29" class="st14" d="M873.4 134.6V425h87.1v-99.3c4.7 5.2 10.8 16.3 15.6 23.7l31 49.8c4.6 7.5 12 18.2 15.5 25.6l94.5.2-41.3-76.4c-3.4-5.7-12-20.4-13.6-26.4 19.6-15.6 41.4-49 41.4-88.2 0-59.5-51.7-113.1-110-113.1H873.3l.1 13.7zm86 142.6c33.5 3.6 58-13.1 57.8-44.8-.1-16.3-7.4-25.8-17.3-32.2-8.7-5.6-28-11.3-40.6-6.8l.1 83.8z"></path><path id="path31" class="st14" d="m309.3 425 85.6-.1 10.8-29.3 100.2-.2 12.5 29.4 84.3.2-119.4-303.6-52.7-.6c-3.8 1-28.3 66.5-31.1 74.2l-90.2 230zM427 338.4l56.3.3c-.4-5.1-24.8-65.9-28.1-70.9-9.5 21.6-20.3 48.6-28.2 70.6z"></path><path id="path33" class="st14" d="M1645.5 424.4h88.9c9-14.5 29.1-56.1 36.5-66.3 8.3 13 24.8 48 35.8 66.2h88.9c-3.4-11.7-78.8-145.1-79.2-151.1-.4-5.6 77.3-142.3 79.3-152h-88.8c-12.2 20.3-24.9 45.3-35.8 66.5-6.1-7.2-13-22.7-18.6-32.8-6.4-11.5-11.6-23.2-18.2-33.6l-88.8-.1c1.4 9 78.7 145.2 79.2 151.1l-59.4 113.3c-4.9 9-17.3 30.4-19.8 38.8z"></path><path id="path35" class="st14" d="M842.8 396.2c-1.3-2.8-37.3-60-44-66.5-13.5 7.2-20.4 13.3-39.5 15.9-45.9 6.1-92.1-28.1-90-76.6 1.4-32.2 23.8-54.9 46.7-64.8 21.1-9.1 46-8.6 67.4.9 7.8 3.4 12.5 8.7 18.5 10.6 4.1-4.5 7.4-10.8 10.6-15.5 7.5-11.5 28.6-41.2 32.1-50.3-99.3-81.9-252.4-10-253.7 119.2-1.2 119.2 117.9 189.5 216.5 147.6 14.9-6.4 24-13.1 35.4-20.5z"></path><path id="path37" class="st14" d="M1447.2 122.4V425h168.4v-69.5l-82.8-.3.1-54.7 82.3-.2.4-65.5-82.1-.6-.6-48.8 82.8-.4v-63.7l-168.5 1.1z"></path><path id="path39" class="st14" d="M1278.3 425h141v-69.5l-55.8-.3.1-234.3h-85.2l-.1 304.1z"></path><path id="path41" class="st14" d="M1150.4 424.9h1.5l89.3-.1V123l-90.2-.2-.6 302.1z"></path></g><g id="Layer1003" style="opacity:.39"><path id="path44" class="st14" d="M1947 135.7h13.1c4.2 0 8 1.1 8 6.9 0 4.8-2.8 7.3-7.9 7.3H1947v-14.2zm-8.1 38.9h8.1v-18.7h11.9c7.4 0 9.2 3.7 9.2 12 0 2.2 0 4.7 1.2 6.7h8.6c-1.7-1.8-2.5-6.7-2.5-12 0-7.2-4.1-9.2-6.8-9.6v-.1c1.5-.5 7.6-2.7 7.6-11.5 0-7.7-5.2-12.3-15.2-12.3h-22v45.5z"></path><path id="path46" class="st14" d="M1958.4 110.2c11.5 0 22 4.7 29.5 12.2 7.6 7.6 12.2 18 12.2 29.5s-4.7 22-12.2 29.5c-7.6 7.6-18 12.2-29.5 12.2s-22-4.7-29.5-12.2c-7.6-7.6-12.2-18-12.2-29.5s4.7-22 12.2-29.5c7.5-7.6 18-12.2 29.5-12.2zm24.9 16.8c-6.4-6.4-15.2-10.3-24.9-10.3s-18.5 3.9-24.9 10.3c-6.4 6.4-10.3 15.2-10.3 24.9s3.9 18.5 10.3 24.9c6.4 6.4 15.2 10.3 24.9 10.3s18.5-3.9 24.9-10.3c6.4-6.4 10.3-15.2 10.3-24.9s-4-18.5-10.3-24.9z"></path></g><g id="Layer1002-2" transform="translate(-1.693 -1.331)"><path id="path29-5" class="st16" d="M870 130.8v290.4h87.1v-99.3c4.7 5.2 10.8 16.3 15.6 23.7l31 49.8c4.6 7.5 12 18.2 15.5 25.6l94.5.2-41.3-76.4c-3.4-5.7-12-20.4-13.6-26.4 19.6-15.6 41.4-49 41.4-88.2 0-59.5-51.7-113.1-110-113.1H869.9l.1 13.7zm86 142.6c33.5 3.6 58-13.1 57.8-44.8-.1-16.3-7.4-25.8-17.3-32.2-8.7-5.6-28-11.3-40.6-6.8l.1 83.8z"></path><path id="path31-2" class="st16" d="m305.9 421.2 85.6-.1 10.8-29.3 100.2-.2L515 421l84.3.2-119.5-303.6-52.7-.6c-3.8 1-28.3 66.5-31.1 74.2l-90.1 230zm117.6-86.5 56.3.3c-.4-5.1-24.8-65.9-28.1-70.9-9.5 21.6-20.2 48.5-28.2 70.6z"></path><path id="path33-9" class="st16" d="M1642 420.7h88.9c9-14.5 29.1-56.1 36.5-66.3 8.3 13 24.8 48 35.8 66.2h88.9c-3.4-11.7-78.8-145.1-79.2-151.1-.4-5.6 77.3-142.3 79.3-152h-88.8c-12.2 20.3-24.9 45.3-35.8 66.5-6.1-7.2-13-22.7-18.6-32.8-6.4-11.5-11.6-23.2-18.2-33.6l-88.8-.1c1.4 9 78.7 145.2 79.2 151.1l-59.4 113.3c-4.9 9-17.3 30.4-19.8 38.8z"></path><path id="path35-9" class="st16" d="M839.4 392.5c-1.3-2.8-37.3-60-44-66.5-13.5 7.2-20.4 13.3-39.5 15.9-45.9 6.1-92.1-28.1-90-76.6 1.4-32.2 23.8-54.9 46.7-64.8 21.1-9.1 46-8.6 67.4.9 7.8 3.4 12.5 8.7 18.5 10.6 4.1-4.5 7.4-10.8 10.6-15.5 7.5-11.5 28.6-41.2 32.1-50.3-99.3-81.9-252.4-10-253.7 119.2C586.3 384.6 705.4 454.9 804 413c14.9-6.5 24-13.1 35.4-20.5z"></path><path id="path37-6" class="st16" d="M1443.8 118.6v302.6h168.4v-69.5l-82.8-.3.1-54.7 82.3-.2.4-65.5-82.1-.6-.6-48.8 82.8-.4v-63.7l-168.5 1.1z"></path><path id="path39-0" class="st16" d="M1274.8 421.2h141v-69.5l-55.8-.3.1-234.3h-85.2l-.1 304.1z"></path><path id="path41-9" class="st16" d="M1147 421.2h1.5l89.3-.1V119.3l-90.2-.2-.6 302.1z"></path></g><g id="Layer1003-4" transform="translate(-.889 -.644)"><path id="path44-7" class="st16" d="M1944.9 134.1h13.1c4.2 0 8 1.1 8 6.9 0 4.8-2.8 7.3-7.9 7.3h-13.2v-14.2zm-8.1 39h8.1v-18.7h11.9c7.4 0 9.2 3.7 9.2 12 0 2.2 0 4.7 1.2 6.7h8.6c-1.7-1.8-2.5-6.7-2.5-12 0-7.2-4.1-9.2-6.8-9.6v-.1c1.5-.5 7.6-2.7 7.6-11.5 0-7.7-5.2-12.3-15.2-12.3h-22v45.5z"></path><path id="path46-4" class="st16" d="M1956.3 108.6c11.5 0 22 4.7 29.5 12.2 7.6 7.6 12.2 18 12.2 29.5s-4.7 22-12.2 29.5c-7.6 7.6-18 12.2-29.5 12.2s-22-4.7-29.5-12.2c-7.6-7.6-12.2-18-12.2-29.5s4.7-22 12.2-29.5c7.5-7.5 18-12.2 29.5-12.2zm24.9 16.9c-6.4-6.4-15.2-10.3-24.9-10.3s-18.5 3.9-24.9 10.3c-6.4 6.4-10.3 15.2-10.3 24.9s3.9 18.5 10.3 24.9c6.4 6.4 15.2 10.3 24.9 10.3s18.5-3.9 24.9-10.3c6.4-6.4 10.3-15.2 10.3-24.9 0-9.8-4-18.6-10.3-24.9z"></path></g></g></svg>