<svg xmlns="http://www.w3.org/2000/svg" id="svg1341" x="0" y="0" viewBox="0 0 2000 1154.5" style="enable-background:new 0 0 2000 1154.5" xml:space="preserve"><style>.st1{fill:#fff}</style><g id="layer1" transform="translate(0 403)"><g id="g88" transform="matrix(2.5248 0 0 -2.5248 348.652 -198.576)"><path id="path90" d="M255.9 81C132.4 80.8 24 53.5-49.4 4.1c-54.7-36.9-88.7-94.9-88.7-151.6 0-29.4 8.2-57.8 24.3-84.2 16.6-27.2 40.8-51.2 72.1-71.2 72.7-46.6 181.7-73.4 299-73.4 135.5 0 248.9 29.8 319.3 84.1 49.9 38.4 77.4 89.8 77.4 144.7 0 47.7-21.7 94.4-59.6 128.1C523.6 43.6 397 81.2 255.9 81" style="fill:#e41d25"></path></g><g id="g92" transform="matrix(2.5248 0 0 -2.5248 259.466 -101.396)"><path id="path94" class="st1" d="M151.1-33.2c-9.9 7.4-22.6 6.7-39.3 3.9 29.9 19.2 31.7 35.5 22.7 51.3-8.4 13.6-23.6 16.1-38.6 13.2-23.8-5.7-55.5-18.6-92-36C-7.4-6-11.3-10.1-7.1-19c2.3-4.6 6.9-5.9 15.9-1.8 1.3.5 2.1.3 2.3-.6l39.6-94.5c.3-1 .1-1.6-.6-1.9-8.2-3.4-16.6-8.6-10.6-18.4 2.2-3.4 6.9-5.8 12.5-2.8 28.6 14.4 57.1 27.5 87.2 37.2 29.3 11.3 36.5 47.9 11.9 68.6m-79.9 2.5L58.6-.9c12.8 6.5 24 8 29.3-2.7 6.8-14.9-.8-23-16.7-27.1m26.6-62.7-16 37.7c10.9 6 19.5 7 24.6 2 3.9-4 7.7-10.3 9.6-19 2-10.9-4-15.6-18.2-20.7"></path></g><g id="g96" transform="matrix(2.5248 0 0 -2.5248 351.995 -118.386)"><path id="path98" class="st1" d="M259.8-13.2c-1.3 41.1-32.6 73.7-69.8 72.5-16.4-.5-31.7-6.2-43-17.5-14.4-14.2-22.9-36.4-22.2-59.3 1.3-41.1 32.7-73.6 69.8-72.4 15.7.5 30.8 6.1 41.9 16.5 15.4 14.1 24 36.4 23.3 60.2m-53.4-44.5c-1.5-8.3-4.9-11.5-8.4-11.8-8.3-.9-17.3 14.5-20.6 51.8-4.2 47.1 2 53.9 9.8 54.7 8.3.9 15.6-12 19.6-52.1 1.7-16.9 1.5-32.5-.4-42.6"></path></g><g id="g100" transform="matrix(2.5248 0 0 -2.5248 357.976 -164.753)"><path id="path102" class="st1" d="M266.8 41.2c21-.2 42.7-1.8 63.6-4.1 1.5-.2 1.5-.2 2-1.6l12.9-41.8c.7-1.5 1.6-1.5 2.6 0l20.8 36.6c.7 1.2.7 1.2 2.5.9 22.1-4.1 44.1-9.5 66-16.2 6.6-2.4 8.6-6.9 6-13.5-2.6-5.2-8.4-5.9-15.5-3.7-1.4.5-2.3 0-2.7-1.2-5.7-25-11.3-57.5-18.8-102.6-.2-1.1-.4-1 .6-1.2 11.1-3.1 14.4-7 11.7-13.8-2.6-5.5-8.4-6.8-12.9-5.5-24.9 7.5-43.1 12.3-64.1 16.2-5.6 1.4-7.1 4.5-6.4 9.8 1.1 5.7 2.3 9.6 18.1 6.4 1.5-.3 1.3-.5 1.5 1l13.1 75.9c.4 2.5-.2 2.7-1.8.6-13.4-21-28.5-46.5-44-72.8-.9-1.3-1.7-1-2.4 1.2l-21.9 77.5c-.8 2.7-1.8 3-2.4-.2-2.9-24.5-5-49-6.2-73.5-.1-1-.3-1 .7-1.1 10.7-.8 14.3-2.5 13.9-10.4-.4-5.4-3.4-8.2-8.6-8.2-11.8.9-24.2 1.4-37.6 1.6-5.7.1-9.1 5.1-8.9 9.8.1 7.5 4.1 9.1 15.8 9.2 1.6 0 1.3-.3 1.4 1.2 3.1 33.9 6.5 68.3 9.6 102.2.1 1.5.2 1.5-1 1.6-9.8 1.4-15.5 4.8-15.6 10.5.2 5.8 3.1 8.9 8 9.2"></path></g><g id="g104" transform="matrix(2.5248 0 0 -2.5248 438.913 46.261)"><path id="path106" class="st1" d="M361.9-206.6c-2.9 9.1-10.1 6.1-14 7-3.7.6-3.6 16.4-6.5 25.4-5.6 19.1-19.7 22.1-35 22.9 22.1 6.5 33.1 16.9 31.2 37.2-1.4 22.1-13.8 30.9-31.2 33.6-25.5 1.5-46.4-5-86.5-3.8-10.5.9-16.2-1.1-16.8-9.4-.6-7 2.5-11.6 12.2-10.8 1.4.1 1.4.1 1.4-.9l1.9-103.8c0-1.8 0-1.8-1.8-1.7-8.2.1-12.4-3-12.5-9.8-.1-6.1 3.4-9.7 11.9-9.7 22.1.1 44.2.8 66.4 2.7 4 1.2 5.5 4.1 5.4 9.4.2 6.1-3.5 9.4-16 8.8-1.9-.1-1.6-.2-1.7 1.4l-1.4 43.5c8.7 2.1 16.6.7 21.1-6.6 6.1-11.8 4.4-31 8.5-44.5 1.4-5.1 4.3-10.1 9.8-9.6 16 1.8 32 4.2 48 7.3 3.7.7 7.3 6 5.6 11.4M268-138.1l-1.3 32c14.7 2.8 24.6.4 24.8-13.3 1.3-14.6-6.2-19.9-23.5-18.7M184.7-88c-25.1 11.9-67.1 12.1-105.4 26.2-5.2 2.1-14.2-.3-14-8.5.1-7 4.8-10.7 13.3-12.2 1.5-.3 1.3-.1 1-1.6-8.3-34.3-15.8-68.6-25.2-102.1-.4-1.3-.3-.9-1.5-.3-9.3 4-17.1 3.4-19.6-2.4-2.5-6.2-.2-12.2 4.7-13.8 46.5-13.4 100.8-25.2 125.9-22.2 18 3 31.1 13.1 31.5 36.3.4 16.4-12.3 27.4-33.9 37.1 22.2.3 41.2 8.1 42.9 29.3 1.3 16.7-7 26.9-19.7 34.2m-70.4-68.2c25.1-3.1 30.2-12.6 25.9-27.1-4.5-15.9-17.1-18.1-35.4-12.6l9.5 39.7zm35.6 37.5c-3.4-13.3-13.3-15.9-29.3-10.7l8 32.9c16.8-2.8 24.3-8.2 21.3-22.2"></path></g><g id="g108" transform="matrix(2.5248 0 0 -2.5248 423.244 -38.827)"><path id="path110" class="st1" d="M343.5-106.6c18.1 3.9 35.9 9.2 53.6 15.3 4.9 1.3 8.4-.7 10.9-5 3.8-6.2.4-10.5-6.3-14.4-1.4-.8-1.1-.5-.7-2.1l29-99.5c.4-1.6.4-1.6 2.2-1 6.8 2.6 12.8 2.6 15.5-3.2 2.5-6.4-.2-12.6-6.3-14.2-18.6-6.4-37.2-11.4-55.8-16.1-7.6-2.1-11.9.1-13.9 5.4-2.5 7.6 1.5 11.5 8 13.9 1.9.7 1.8.2 1.2 2.2l-28.2 99.8c-.3 1.1-.3.7-1.4.4-6.4-1.8-10.3-1.5-13.5 4.9-2.5 6.7-.7 11 5.7 13.6"></path></g><g id="g112" transform="matrix(2.5248 0 0 -2.5248 502.263 19.43)"><path id="path114" class="st1" d="m436.3-175.1-45 94.8c-.6 1.3-.5 1.3-1.7.8-5.9-2.5-9.5.2-11.5 5.6-1.5 4-.4 9.8 5.9 12.3 16.5 6.3 33.6 14 51.5 22.6 4.2 1.6 7.9.5 11-4.9 3.1-6-.1-10.5-8.2-15.6-.9-.6-1-.6-.3-1.9 13.2-29.6 29.5-59 41.1-88.3.8-1.5 1.3-1.1 2.7 0 5.7 4.5 8.4 14.2 6.8 31.4-3.8 20.1-2.3 30.3 3.3 34.6 4.8 3.4 8.9 2.6 11-1l15.3-40c2.4-6.1 2.2-9.3 0-12.5-23.3-33.2-51.1-48.7-80-59.7-6.7-2.3-11.7-.2-14 5.7-2.2 6.1 1.5 11.1 11.3 14.8 1.2.3 1.2.3.8 1.3"></path></g><g id="g116" transform="matrix(2.5248 0 0 -2.5248 597.806 -53.125)"><path id="path118" class="st1" d="M548.5-89.9c-1 49.5-20.8 90.4-60.4 125-69.4 60.7-193.5 96.8-331.9 96.7-119.6-.2-225.4-26.7-297.9-74.7-56.3-37.3-88.5-90.8-88.2-146.9.3-59.9 33.8-113.3 94.4-150.3 74.7-45.6 182.8-71.8 296.6-71.8 130.5 0 240.7 28.9 310.1 81.5 51 38.5 78.4 88.4 77.3 140.5m-89.2-124.7c-66-49.9-171.9-77.5-298.2-77.5-110.3 0-214.6 25.1-286.3 68.9-54.5 33.3-84.6 80.7-84.9 133.5-.2 49.2 28.7 96.7 79.3 130.2 69.3 45.9 171.2 71.2 286.9 71.4 133.8.2 253-34.1 318.8-91.8 35.1-30.7 52.7-66.9 53.6-110.4 1.1-45.6-23.5-89.7-69.2-124.3"></path></g></g></svg>