<svg xmlns="http://www.w3.org/2000/svg" viewBox="0 0 2000 460.9" style="enable-background:new 0 0 2000 460.9" xml:space="preserve"><path d="M0 321.6V139.3C0 55.6 53.4 0 133.4 0c75.6 0 126 55.6 129 147.4 0 8.9-4.4 13.3-12.6 13.3h-67.5c-7.4 0-12.6-4.4-12.6-12.6-1.5-41.5-16.3-60.7-38.6-60.7-23.7 0-37.8 17-37.8 45.2v195.6c0 28.2 14.1 45.2 37.8 45.2 24.5 0 40-23 41.5-67.4.7-8.2 5.2-12.6 12.6-12.6h67.5c8.9 0 13.3 5.2 12.6 14.1-3 95.6-52.6 153.3-131.9 153.3C53.4 460.9 0 404.6 0 321.6zM504.5 13.5h66.7c8.2 0 12.6 4.5 12.6 8.8v412.6c0 12.7-4.4 17.1-12.6 17.1h-66.7c-8.2 0-12.6-4.4-12.6-13.3v-177H417v176.9c0 8.9-5.2 13.3-13.3 13.3h-66c-8.9 0-13.3-4.4-13.3-17.1V22.3c0-4.4 4.4-8.8 13.3-8.8h66c8.2 0 13.3 4.5 13.3 12.6v150.4h74.9V26.1c0-8.2 4.5-12.6 12.6-12.6zm140.7 425.1V140.8c0-84.5 53.4-140 132.7-140 80 0 133.4 55.6 133.4 140v297.9c0 8.9-5.2 13.3-13.3 13.3h-66.7c-8.2 0-13.3-4.4-13.3-13.3V285.1h-80.1v153.5c0 8.9-4.5 13.3-12.6 13.3h-66.7c-8.9.1-13.4-4.4-13.4-13.3zm172.7-238.7v-65.8c0-28.9-14.8-46.7-40-46.7s-40 17.8-40 46.7v65.8h80zM1264.8 0c77.1 0 127.5 56.3 127.5 141.5v297.1c0 8.9-4.4 13.3-13.3 13.3h-65.9c-8.2 0-12.6-4.4-12.6-13.3V134.8c0-30.2-12.5-47.2-35.9-47.4-22 .2-36 17.2-36 47.4v303.8c0 8.9-4.4 13.3-12.6 13.3h-65.9c-8.2 0-12.6-4.4-12.6-13.3V134.8c0-30.2-13.9-47.2-36-47.4-23.5.2-35.9 17.2-35.9 47.4v303.8c0 8.9-4.4 13.3-12.6 13.3h-65.9c-8.9 0-13.3-4.4-13.3-13.3V141.5C973.5 56.3 1023.9 0 1101 0h.7c33.9 0 59.7 13.2 81.2 32.3 21.4-19.1 47.3-32.3 81.2-32.3h.7zm189.7 321.1V158c0-89.2 53-145.1 132.5-145.1h84.8c8.1 0 13.3 4.4 13.3 12.5v58.9c0 8.8-5.2 13.2-13.3 13.2H1598c-31.7 0-50.8 22.1-50.8 55.9v27.1h106.2c8.8 0 13.3 5.2 13.3 13.3v55.9c0 8.8-4.4 13.3-13.3 13.3h-106.2v48.4c0 33.9 19.2 55.9 50.8 55.9h73.8c8.1 0 13.3 4.4 13.3 12.5v59.6c0 8.1-5.2 12.5-13.3 12.5H1587c-79.5.1-132.5-55.9-132.5-130.8zm503.4-100.5c27.3 23.6 42.1 56.1 42.1 95.3v122.8c0 8.9-5.2 13.3-13.3 13.3h-66.5c-8.1 0-13.3-4.4-13.3-13.3V309.2c0-27.3-14.8-45.8-38.4-45.8-22.9 0-38.4 18.5-38.4 45.8v129.5c0 8.9-4.4 13.3-12.6 13.3H1751c-8.9 0-13.3-4.4-13.3-13.3V315.9c0-39.2 14.8-71.7 42.1-95.3-27.3-23.6-42.1-56.1-42.1-96V26c0-8.1 4.4-12.6 13.3-12.6h66.5c8.1 0 12.6 4.4 12.6 12.6v105.2c0 27.3 15.5 45.8 38.4 45.8 23.7 0 38.4-18.5 38.4-45.8V26c0-8.1 5.2-12.6 13.3-12.6h66.5c8.1 0 13.3 4.4 13.3 12.6v98.5c0 39.9-14.8 72.5-42.1 96.1z" style="fill-rule:evenodd;clip-rule:evenodd;fill:#d40324"></path></svg>