<svg xmlns="http://www.w3.org/2000/svg" xmlns:xlink="http://www.w3.org/1999/xlink" id="Group_12729" data-name="Group 12729" width="455" height="128.428" viewBox="0 0 455 128.428"><defs><clipPath id="clip-path"><rect id="Rectangle_7962" data-name="Rectangle 7962" width="455" height="128.428" fill="none"></rect></clipPath></defs><path id="Path_35923" data-name="Path 35923" d="M169.06,122.865h-2.566l2.312-12.017-3.413,1.357v-2.312l4.4-1.522h2.058Z"></path><g id="Group_12728" data-name="Group 12728"><g id="Group_12727" data-name="Group 12727" clip-path="url(#clip-path)"><path id="Path_35924" data-name="Path 35924" d="M174.3,128.428a12.134,12.134,0,0,1-1.681-.14l.418-2.315a8.668,8.668,0,0,0,1.752.2c3.944,0,6.485-2.291,8.039-6.062.222-.54.333-.88.529-1.36v-.025a6.035,6.035,0,0,1-4.791,2.2c-3.273,0-4.77-2.029-4.77-4.63a7.869,7.869,0,0,1,7.732-8.147c3.75,0,5.3,2.255,5.3,5.614,0,5.1-2.878,14.669-12.532,14.669m6.826-18.144c-2.676,0-4.619,2.652-4.619,5.614a2.574,2.574,0,0,0,2.757,2.769,4.829,4.829,0,0,0,4.852-5.162c0-1.78-.955-3.221-2.99-3.221"></path><path id="Path_35925" data-name="Path 35925" d="M195.382,118.181l-3.36,2.458-.027.057c1.1-.087,3.98-.111,6.969-.111l-.453,2.28H188.078l.361-2.029,4.231-3.13c3.365-2.45,4.462-3.553,4.462-5.331a2.086,2.086,0,0,0-2.374-2.118,6.955,6.955,0,0,0-3.8,1.155V109.1a10.8,10.8,0,0,1,4.458-.985c3.1,0,4.535,1.664,4.535,3.7,0,2.485-1.635,4.26-4.567,6.37"></path><path id="Path_35926" data-name="Path 35926" d="M213.973,122.864h-3.156l-1.047,5.423h-2.485l1.047-5.423h-8.153v-2.083l9.931-12.443h3.475l-2.318,12.246h3.163Zm-3.353-12.13-7.932,9.875c1.637-.025,5.023-.025,6.119-.025l1.864-9.85Z"></path><path id="Path_35927" data-name="Path 35927" d="M96.292,122.981c-2.088,0-3.5-.116-4.845-.116l3.6-18.994c1.441-.027,3.556-.119,5.442-.119,5.836,0,8.148,2.793,8.148,6.912,0,6.257-3.888,12.317-12.346,12.317m3.834-17.111c-1.1,0-2.226.051-2.96.086l-2.792,14.653a15.884,15.884,0,0,0,2.283.173c6.709,0,9.28-5.3,9.28-9.864,0-2.9-1.354-5.048-5.811-5.048"></path><path id="Path_35928" data-name="Path 35928" d="M112.275,116.694a10.238,10.238,0,0,0-.138,1.635c0,2.172.761,2.736,3.017,2.736a10.446,10.446,0,0,0,3.95-.823v2.037a13.194,13.194,0,0,1-4.822.845c-3.216,0-4.713-1.384-4.713-4.538,0-5.442,3.019-9.983,7.667-9.983,2.99,0,4.118,1.522,4.118,3.186,0,3.017-3.071,4.676-9.079,4.9m4.678-6.17c-2.22,0-3.718,1.937-4.365,4.312,4.341-.173,6.256-1.045,6.256-2.734,0-1.014-.758-1.578-1.891-1.578"></path><path id="Path_35929" data-name="Path 35929" d="M130.473,110.858a6.707,6.707,0,0,0-2.115-.335c-1.832,0-2.787.872-2.787,2.051,0,2.231,4.254,2.822,4.254,5.976,0,2.342-2.058,4.573-6.027,4.573a12.1,12.1,0,0,1-2.4-.2l.447-2.256a7.809,7.809,0,0,0,2.289.367c1.829,0,3.067-.734,3.067-2.2,0-2.231-4.228-2.59-4.228-5.976,0-2.4,1.919-4.258,5.55-4.258a13.807,13.807,0,0,1,2.4.2Z"></path><path id="Path_35930" data-name="Path 35930" d="M143.256,117.822c-.367,1.948-.734,3.891-.928,5.043h-2.485a53.725,53.725,0,0,1,1.614-5.691l-.062-.029c-1.009,2.172-3.13,6-6.54,6-2.027,0-3.13-1.289-3.13-4.249,0-5.161,2.677-10.263,8.8-10.263a11.418,11.418,0,0,1,1.975.172l1.212-6.515h2.506Zm-3.159-7.19c-4.168,0-5.806,4.314-5.806,7.781,0,1.829.564,2.566,1.441,2.566,2.644,0,5.522-5.612,6.17-8.966l.2-1.127a8.086,8.086,0,0,0-2.007-.254"></path><path id="Path_35931" data-name="Path 35931" d="M148.841,116.694a9.913,9.913,0,0,0-.135,1.635c0,2.172.753,2.736,3.008,2.736a10.418,10.418,0,0,0,3.95-.823v2.037a13.181,13.181,0,0,1-4.824.845c-3.211,0-4.706-1.384-4.706-4.538,0-5.442,3.017-9.983,7.668-9.983,2.99,0,4.118,1.522,4.118,3.186,0,3.017-3.073,4.676-9.079,4.9m4.678-6.17c-2.231,0-3.715,1.937-4.368,4.312,4.344-.173,6.259-1.045,6.259-2.734,0-1.014-.769-1.578-1.891-1.578"></path><path id="Path_35932" data-name="Path 35932" d="M147.433,33.793l2.6-13.142H110.875L98.99,83.075h39.18l2.494-13.41H118.313l2.323-12.043h21.239l2.369-12.654h-21.11l2.059-11.175Zm57.966,1.88c0-10.15-7.419-15.516-21.465-15.516-8.067,0-18.5.119-24.309.445L147.856,83.075h16.7l5.11-26.489,9.6,26.489H199c-1.822-4.3-11.294-26.379-11.294-26.379l1.079-.278c7.665-1.942,16.611-8.542,16.611-20.745m-29.106,13.38a37.571,37.571,0,0,1-4.182-.135l-.955-.111,2.895-15.673.659-.075c1.289-.13,2.8-.13,4.543-.13,5.766,0,7.808,3.141,7.808,6.087,0,5.617-4.727,10.037-10.768,10.037m126.6-28.4c-.963,5.04-6.766,35.325-6.766,35.325-1.964,9.9-6.611,14.313-15.085,14.313-4.007,0-6.75-.966-8.377-2.936-1.805-2.193-2.218-5.625-1.271-10.482l6.834-36.22h-16.7L254,60.05c-1.392,7.263-.4,13,2.952,17.046,3.944,4.778,11.132,7.2,21.368,7.2,18.225,0,30.822-9.141,33.693-24.463,0,0,6.237-32.842,7.438-39.185Zm69.558,15.022c0-10.15-7.409-15.516-21.455-15.516-8.072,0-18.516.119-24.306.445L314.909,83.075H331.6l5.113-26.489,9.616,26.489h19.733c-1.829-4.3-11.3-26.379-11.3-26.379l1.074-.278c7.668-1.942,16.612-8.542,16.612-20.745m-29.1,13.38a37.41,37.41,0,0,1-4.177-.135l-.96-.111L341.1,33.134l.666-.075c1.279-.13,2.8-.13,4.541-.13,5.758,0,7.8,3.141,7.8,6.087,0,5.617-4.733,10.037-10.765,10.037M243.94,33.917a26.73,26.73,0,0,1,9.017,1.592l4.19-14.764a47.768,47.768,0,0,0-11.855-1.333c-27.719,0-40.343,21.366-40.343,41.21,0,15.332,9.381,23.429,27.136,23.429a61.041,61.041,0,0,0,13.75-1.926l1.632-14.8a34.483,34.483,0,0,1-10.563,1.6c-8.248,0-13.371-4.6-13.371-12.009,0-9.553,6.329-23,20.407-23M75.261,7.541C73.227,11.556,51.235,56.048,51,56.526L46.225,7.848l-.075-.779H26.465l-.2.577L.4,81.949,0,83.093H17.853l.186-.607c1.319-4.209,14.348-47.536,14.5-48.013l4.776,47.835.078.785H53.807l.237-.488C55.938,78.7,76.384,35.492,76.61,35.017L74.093,82.184l-.046.909H92.571l.03-.844,2.207-74.29.024-.89H75.5Z"></path><path id="Path_35933" data-name="Path 35933" d="M414.254,23.246c.329,1.648,2.4,1.451,3.975,1.718.126.022.291.041.447.052a5.715,5.715,0,0,0-1.807,1.011c-.41.324,1.36.157,1.494.621.581,1.9.025,2.123.632,2.55a4.935,4.935,0,0,0,3.793.051c.693-.443-.137-.869.81-2.839.135-.264,1.54-.5,1.281-.6a14.3,14.3,0,0,0-3.623-1.023c.531-.1,1.02-.205,1.419-.3a23.619,23.619,0,0,1,5.261-.33c-4.865-2.414-12.114.232-13.682-.9m8.359,3.386c.14.814.024,1.9-.826,2.164-1.761.574-3.229-.64-2.5-2.164.656.456.481,1.5,1.39,1.745,1.427.122.755-1.583,1.932-1.745M421.9,0A33.1,33.1,0,1,0,455,33.088,33.094,33.094,0,0,0,421.9,0M407.941,26.637c.181.372-.086,1.174.507,1.241a1.015,1.015,0,0,0,.944-1.481c-.221-.564.5-.113.61.105.378.766.068,1.614-1.084,1.856-.834.178-1.514-.07-1.681-.912a1.194,1.194,0,0,0-.942-.944c.178-.294,1.346-.431,1.646.135m-.372,20.58c-1.9-3.334-4.339-9.961-2.561-13.295.877,4.4,1.579,9,2.561,13.295m-14.432-14.86A31.567,31.567,0,0,1,405.513,7.8a5.5,5.5,0,0,1,.766-.451,12.031,12.031,0,0,0-4.185,6.009c-1.227,4.155,2.717,5.5,1.959,9.416-.029.124-.431,2.4-.45,2.514.116.81,2.2,2.17.688,5.5-1.368,3.033-3.251,8.024-2.418,11.391,1.382,5.642,4.816,8.089,9.262,11.564a46.33,46.33,0,0,0-7.381,3.373,31.438,31.438,0,0,1-10.617-24.768m41.8,17.375a32.74,32.74,0,0,1-1.247,11.507c.1-.043.2-.1.3-.154a12.622,12.622,0,0,1-.707,1.247,27.591,27.591,0,0,1-12.317,1.707L420.94,64a26.672,26.672,0,0,1-12.764-3.7,9.806,9.806,0,0,1,4.624-4.487,35.655,35.655,0,0,0,6.119,3.5,10.732,10.732,0,0,1,8.4-7.112c1.565-.2,4.576-5.682,3.8-7.538-.537,2.366-3.953,5.212-5.145,5.89s-4.662.652-7.49.984c-2.385.27-5.466.5-7.417-1.225-1.37-1.211.766-3.048,1.8-3.944,1.325-1.133,3.259-.418,4.338.3.664-4.455-4.157-1.948-6.372-3.292-1.865-1.125,1.605-.936,2.9-.874,1.867.089,5.29.121,7.627-.871-1.784-.308-4.236.237-6.381-.923-1.443.442-3.653,1.3-4.268-.88,1.87.729,2.7-.388,3.982-1.484a1.685,1.685,0,0,0,2.854-.89c-1.184-.059-3.342.72-5.007.572-1.311-.1-2.895-1.443-2.3-2.946a18.656,18.656,0,0,0,1.122-2.213c.958-3.275,1.749-8.509-.224-8.625a15.188,15.188,0,0,1-3.574-.448c-.206-6.173,6.275-7,8.957-7.767a12.935,12.935,0,0,0,7.177-5.772c-1.673.51-4.506.775-3.777-1.057,1.948-4.838,16.665-4.455,19.2,4.317-.976-1.606-5.579-3.9-7.613-2.963,2.493.915,4.759,3.912,4.872,7.749-3.5-4.875-9.834-6.5-12.3-3.373,3.686-.882,8.4,1.293,8.947,8.874.591,7.986-1.138,15.012.75,18.978,3.413,7.279,11.342,7.314,12.818-.178.907-4.587-.966-6.977-2.636-9.689,2.469,2.447,5.607,5.043,4.061,12.052a8.146,8.146,0,0,1-13.072,4.765"></path></g></g></svg>